<mxfile host="drawio-plugin" modified="2023-01-04T01:54:07.942Z" agent="5.0 (Windows NT 6.2; Win64; x64) AppleWebKit/537.36 (KHTML, like Gecko) Chrome/104.0.5112.102 Safari/537.36" etag="zPmdsKEBpBQiEFWXEJ3V" version="20.5.3" type="embed"><diagram id="C5RBs43oDa-KdzZeNtuy" name="Page-1"><mxGraphModel dx="903" dy="710" grid="1" gridSize="10" guides="1" tooltips="1" connect="1" arrows="1" fold="1" page="1" pageScale="1" pageWidth="827" pageHeight="1169" math="0" shadow="0"><root><mxCell id="WIyWlLk6GJQsqaUBKTNV-0"/><mxCell id="WIyWlLk6GJQsqaUBKTNV-1" parent="WIyWlLk6GJQsqaUBKTNV-0"/><mxCell id="TZifv7ZTFYabwCE8NZ6X-0" value="đăng nhập" style="rounded=0;whiteSpace=wrap;html=1;" parent="WIyWlLk6GJQsqaUBKTNV-1" vertex="1"><mxGeometry x="330" y="370" width="120" height="60" as="geometry"/></mxCell><mxCell id="TZifv7ZTFYabwCE8NZ6X-1" value="" style="endArrow=classic;html=1;rounded=0;" parent="WIyWlLk6GJQsqaUBKTNV-1" target="TZifv7ZTFYabwCE8NZ6X-2" edge="1"><mxGeometry width="50" height="50" relative="1" as="geometry"><mxPoint x="390" y="430" as="sourcePoint"/><mxPoint x="220" y="520" as="targetPoint"/></mxGeometry></mxCell><mxCell id="TZifv7ZTFYabwCE8NZ6X-2" value="crud đồ ăn" style="rounded=0;whiteSpace=wrap;html=1;" parent="WIyWlLk6GJQsqaUBKTNV-1" vertex="1"><mxGeometry x="170" y="480" width="120" height="60" as="geometry"/></mxCell><mxCell id="TZifv7ZTFYabwCE8NZ6X-3" value="admin" style="text;html=1;strokeColor=none;fillColor=none;align=center;verticalAlign=middle;whiteSpace=wrap;rounded=0;" parent="WIyWlLk6GJQsqaUBKTNV-1" vertex="1"><mxGeometry x="220" y="440" width="60" height="30" as="geometry"/></mxCell><mxCell id="TZifv7ZTFYabwCE8NZ6X-4" value="" style="endArrow=classic;html=1;rounded=0;" parent="WIyWlLk6GJQsqaUBKTNV-1" target="TZifv7ZTFYabwCE8NZ6X-5" edge="1"><mxGeometry width="50" height="50" relative="1" as="geometry"><mxPoint x="390" y="430" as="sourcePoint"/><mxPoint x="550" y="500" as="targetPoint"/></mxGeometry></mxCell><mxCell id="TZifv7ZTFYabwCE8NZ6X-5" value="đặt đồ theo id&lt;br&gt;xem menu&lt;br&gt;xoá đồ đặt&lt;br&gt;thanh toán" style="rounded=0;whiteSpace=wrap;html=1;" parent="WIyWlLk6GJQsqaUBKTNV-1" vertex="1"><mxGeometry x="490" y="470" width="120" height="110" as="geometry"/></mxCell><mxCell id="TZifv7ZTFYabwCE8NZ6X-6" value="user" style="text;html=1;strokeColor=none;fillColor=none;align=center;verticalAlign=middle;whiteSpace=wrap;rounded=0;" parent="WIyWlLk6GJQsqaUBKTNV-1" vertex="1"><mxGeometry x="480" y="430" width="60" height="30" as="geometry"/></mxCell><mxCell id="TZifv7ZTFYabwCE8NZ6X-13" style="edgeStyle=orthogonalEdgeStyle;rounded=0;orthogonalLoop=1;jettySize=auto;html=1;" parent="WIyWlLk6GJQsqaUBKTNV-1" source="TZifv7ZTFYabwCE8NZ6X-12" target="TZifv7ZTFYabwCE8NZ6X-0" edge="1"><mxGeometry relative="1" as="geometry"/></mxCell><mxCell id="TZifv7ZTFYabwCE8NZ6X-15" style="edgeStyle=orthogonalEdgeStyle;rounded=0;orthogonalLoop=1;jettySize=auto;html=1;" parent="WIyWlLk6GJQsqaUBKTNV-1" source="TZifv7ZTFYabwCE8NZ6X-12" edge="1"><mxGeometry relative="1" as="geometry"><mxPoint x="120" y="280" as="targetPoint"/></mxGeometry></mxCell><mxCell id="TZifv7ZTFYabwCE8NZ6X-16" style="edgeStyle=orthogonalEdgeStyle;rounded=0;orthogonalLoop=1;jettySize=auto;html=1;" parent="WIyWlLk6GJQsqaUBKTNV-1" source="TZifv7ZTFYabwCE8NZ6X-12" edge="1"><mxGeometry relative="1" as="geometry"><mxPoint x="120" y="280" as="targetPoint"/></mxGeometry></mxCell><mxCell id="TZifv7ZTFYabwCE8NZ6X-12" value="đăng kí&amp;nbsp;" style="rounded=0;whiteSpace=wrap;html=1;" parent="WIyWlLk6GJQsqaUBKTNV-1" vertex="1"><mxGeometry x="60" y="330" width="120" height="60" as="geometry"/></mxCell><mxCell id="TZifv7ZTFYabwCE8NZ6X-18" value="thành công" style="text;html=1;strokeColor=none;fillColor=none;align=center;verticalAlign=middle;whiteSpace=wrap;rounded=0;" parent="WIyWlLk6GJQsqaUBKTNV-1" vertex="1"><mxGeometry x="210" y="310" width="60" height="30" as="geometry"/></mxCell><mxCell id="TZifv7ZTFYabwCE8NZ6X-19" value="yêu cầu:&amp;nbsp;&lt;br&gt;có validate&lt;br&gt;có thoát&lt;br&gt;cleanCode" style="whiteSpace=wrap;html=1;aspect=fixed;" parent="WIyWlLk6GJQsqaUBKTNV-1" vertex="1"><mxGeometry x="370" y="510" width="80" height="80" as="geometry"/></mxCell><mxCell id="TZifv7ZTFYabwCE8NZ6X-20" value="" style="endArrow=classic;html=1;rounded=0;entryX=0;entryY=0.5;entryDx=0;entryDy=0;" parent="WIyWlLk6GJQsqaUBKTNV-1" target="TZifv7ZTFYabwCE8NZ6X-12" edge="1"><mxGeometry width="50" height="50" relative="1" as="geometry"><mxPoint x="20" y="360" as="sourcePoint"/><mxPoint x="440" y="510" as="targetPoint"/></mxGeometry></mxCell><mxCell id="TZifv7ZTFYabwCE8NZ6X-21" value="" style="endArrow=classic;html=1;rounded=0;" parent="WIyWlLk6GJQsqaUBKTNV-1" edge="1"><mxGeometry width="50" height="50" relative="1" as="geometry"><mxPoint x="20" y="280" as="sourcePoint"/><mxPoint x="20" y="360" as="targetPoint"/></mxGeometry></mxCell><mxCell id="TZifv7ZTFYabwCE8NZ6X-22" value="" style="endArrow=classic;html=1;rounded=0;" parent="WIyWlLk6GJQsqaUBKTNV-1" edge="1"><mxGeometry width="50" height="50" relative="1" as="geometry"><mxPoint x="120" y="280" as="sourcePoint"/><mxPoint x="20" y="280" as="targetPoint"/></mxGeometry></mxCell><mxCell id="TZifv7ZTFYabwCE8NZ6X-23" value="thất bại" style="text;html=1;strokeColor=none;fillColor=none;align=center;verticalAlign=middle;whiteSpace=wrap;rounded=0;" parent="WIyWlLk6GJQsqaUBKTNV-1" vertex="1"><mxGeometry x="30" y="240" width="60" height="30" as="geometry"/></mxCell><mxCell id="TZifv7ZTFYabwCE8NZ6X-24" value="đồ ăn:&lt;br&gt;Số lượng" style="whiteSpace=wrap;html=1;aspect=fixed;" parent="WIyWlLk6GJQsqaUBKTNV-1" vertex="1"><mxGeometry x="590" y="265" width="120" height="120" as="geometry"/></mxCell></root></mxGraphModel></diagram></mxfile>